
      <svg data-logo="logo" xmlns="http://www.w3.org/2000/svg" viewBox="0 0 194.1199951171875 41" width="194.1199951171875" height="41">
        <g id="logogram" transform="
    translate(0, 0.5)
    rotate(0 20 20)
    
  "><path d="M13.0964 20.3536L17.6262 22.4473L17.046 27.6527L8.94876 36.8282C4.2486 33.8023 0.898178 28.8615 0 23.108L13.0964 20.3536Z" fill="#15E3FF"/><path d="M25.183 25.94L31.2414 36.3789C27.992 38.6605 24.0331 40 19.7612 40C18.3744 40 17.0206 39.8587 15.7133 39.59L17.046 27.6527L20.4765 23.7656L25.183 25.94Z" fill="#348DFC"/><path d="M39.1022 14.881C39.5332 16.5143 39.763 18.2294 39.763 19.9982C39.763 24.1145 38.5192 27.9403 36.3874 31.1207L25.184 25.9405L22.5551 21.4123L25.8574 17.6692L39.1022 14.881Z" fill="#FD4873"/><path d="M17.046 27.6524L17.0458 27.6527L17.1686 26.552L17.046 27.6524Z" fill="#FFC700"/><path d="M20.132 0C26.1505 0.109415 31.5194 2.877 35.1148 7.17842L25.8561 17.6694L20.9792 18.6959L18.519 14.4574L20.132 0Z" fill="#FFC700"/><path d="M18.519 14.4574L17.9745 19.3269L13.0991 20.353L0.514709 14.5347C2.09964 8.94044 6.05794 4.3436 11.2327 1.9007L18.519 14.4574Z" fill="#00E7B9"/></g>
        <g id="logotype" transform="translate(46, 9.5)"><path fill="#86ee02" d="M27.88 22L19.13 22L19.13 17.63L14.75 17.63L14.75 8.87L10.38 8.87L10.38 0.12L19.13 0.12L19.13 8.87L27.88 8.87L27.88 0.12L36.63 0.12L36.63 8.87L32.25 8.87L32.25 17.63L27.88 17.63L27.88 22ZM50.63 22L41.88 22L41.88 4.50L46.25 4.50L46.25 0.12L59.38 0.12L59.38 4.50L63.75 4.50L63.75 22L55 22L55 13.25L50.63 13.25L50.63 22ZM50.63 4.67L50.63 8.87L55 8.87L55 4.67L50.63 4.67ZM77.75 22L69 22L69 0.12L86.50 0.12L86.50 4.50L90.88 4.50L90.88 8.87L86.50 8.87L86.50 17.63L90.88 17.63L90.88 22L82.13 22L82.13 17.63L77.75 17.63L77.75 22ZM77.75 4.50L77.75 8.87L82.13 8.87L82.13 4.50L77.75 4.50ZM113.63 22L104.88 22L104.88 8.87L100.50 8.87L100.50 4.50L96.13 4.50L96.13 0.12L104.88 0.12L104.88 4.50L113.63 4.50L113.63 0.12L122.38 0.12L122.38 4.50L118 4.50L118 8.87L113.63 8.87L113.63 22ZM136.38 22L127.63 22L127.63 4.50L132 4.50L132 0.12L145.13 0.12L145.13 4.50L149.50 4.50L149.50 22L140.75 22L140.75 13.25L136.38 13.25L136.38 22ZM136.38 4.67L136.38 8.87L140.75 8.87L140.75 4.67L136.38 4.67Z"/></g>
        
      </svg>
    